<?xml version="1.0"?>
<svg id="Layer_2" data-name="Layer 2" xmlns="http://www.w3.org/2000/svg" viewBox="0 0 102.03 102.03">
  <defs></defs>
  <g id="Layer_1-2" data-name="Layer 1">
    
    <path class="cls-1" d="M48.59,59.16c12.06.33,10.6-12.59,10.6-12.59l-5.75-.06s1.49,7.31-6.22,7.24c2.25-.87,3.85-3.05,3.85-5.61v-2.21c0-3.33-2.7-6.02-6.02-6.02h-5.07l-1.6-3.9c.81-.69,1.32-1.72,1.32-2.87,0-2.08-1.69-3.77-3.77-3.77s-3.77,1.69-3.77,3.77,1.69,3.77,3.77,3.77c.09,0,.18,0,.26-.01l1.23,3h-1.27c-2.5,0-4.64,1.52-5.55,3.69-1.31.59-2.22,1.91-2.22,3.43s.91,2.84,2.22,3.43c.52,1.23,1.45,2.25,2.6,2.9-3.7.02-7.37.36-9.23,1.67-4.53,3.21-4.83,8.47-4.83,8.47l6.23.19s0-2.48,1.9-4.12c2.21-1.91,5.61-.82,6.6,1.48s.59,6.02.49,9.73c-.05,2.18-3.68,2.89-4.23-.49-3,.05-5.41.16-5.41.16,0,0-.52,8.12,7.5,8.11,9.43-.02,8.14-9.1,8.14-9.1,0,0,4.97.72,6.82,3.71.87,1.41.55,6.97.55,6.97l6.33.07s.09-7.42-.06-9.34c-.44-5.71-7.38-6.88-7.38-6.88,0,0-.98-4.92,1.97-4.84ZM47.46,44.7c1,0,1.81.81,1.81,1.81s-.81,1.81-1.81,1.81-1.81-.81-1.81-1.81.81-1.81,1.81-1.81ZM41.4,44.7c1,0,1.81.81,1.81,1.81s-.81,1.81-1.81,1.81-1.81-.81-1.81-1.81.81-1.81,1.81-1.81Z"></path>
    <path class="cls-1" d="M67.52,74.48c-11.34.33-9.97-12.59-9.97-12.59l5.4-.06s-1.4,7.31,5.85,7.24c-2.12-.87-3.62-3.05-3.62-5.61v-2.21c0-3.33,2.54-6.02,5.66-6.02h4.77l1.5-3.9c-.76-.69-1.24-1.72-1.24-2.87,0-2.08,1.59-3.77,3.55-3.77s3.55,1.69,3.55,3.77-1.59,3.77-3.55,3.77c-.08,0-.17,0-.25-.01l-1.16,3h1.2c2.35,0,4.37,1.52,5.22,3.69,1.23.59,2.08,1.91,2.08,3.43s-.86,2.84-2.08,3.43c-.49,1.23-1.36,2.25-2.45,2.9,3.48.02,6.93.36,8.68,1.67,4.26,3.21,4.54,8.47,4.54,8.47l-5.86.19s0-2.48-1.78-4.12c-2.08-1.91-5.27-.82-6.2,1.48s-.55,6.02-.47,9.73c.05,2.18,3.46,2.89,3.98-.49,2.82.05,5.09.16,5.09.16,0,0,.49,8.12-7.06,8.11-8.87-.02-7.65-9.1-7.65-9.1,0,0-4.67.72-6.41,3.71-.82,1.41-.52,6.97-.52,6.97l-5.95.07s-.08-7.42.06-9.34c.41-5.71,6.94-6.88,6.94-6.88,0,0,.92-4.92-1.86-4.84ZM68.59,60.02c-.94,0-1.7.81-1.7,1.81s.76,1.81,1.7,1.81,1.7-.81,1.7-1.81-.76-1.81-1.7-1.81ZM74.29,60.02c-.94,0-1.7.81-1.7,1.81s.76,1.81,1.7,1.81,1.7-.81,1.7-1.81-.76-1.81-1.7-1.81Z"></path>
  </g>
</svg>