<?xml version="1.0"?>
<svg id="Layer_2" data-name="Layer 2" xmlns="http://www.w3.org/2000/svg" viewBox="0 0 102.03 102.03">
  <defs></defs>
  <g id="Layer_1-2" data-name="Layer 1">
    
    <path class="cls-1" d="M48.59,59.16c12.06.33,10.6-12.59,10.6-12.59l-5.75-.06s1.49,7.31-6.22,7.24c2.25-.87,3.85-3.05,3.85-5.61v-2.21c0-3.33-2.7-6.02-6.02-6.02h-5.07l-1.6-3.9c.81-.69,1.32-1.72,1.32-2.87,0-2.08-1.69-3.77-3.77-3.77s-3.77,1.69-3.77,3.77,1.69,3.77,3.77,3.77c.09,0,.18,0,.26-.01l1.23,3h-1.27c-2.5,0-4.64,1.52-5.55,3.69-1.31.59-2.22,1.91-2.22,3.43s.91,2.84,2.22,3.43c.52,1.23,1.45,2.25,2.6,2.9-3.7.02-7.37.36-9.23,1.67-4.53,3.21-4.83,8.47-4.83,8.47l6.23.19s0-2.48,1.9-4.12c2.21-1.91,5.61-.82,6.6,1.48s.59,6.02.49,9.73c-.05,2.18-3.68,2.89-4.23-.49-3,.05-5.41.16-5.41.16,0,0-.52,8.12,7.5,8.11,9.43-.02,8.14-9.1,8.14-9.1,0,0,4.97.72,6.82,3.71.87,1.41.55,6.97.55,6.97l6.33.07s.09-7.42-.06-9.34c-.44-5.71-7.38-6.88-7.38-6.88,0,0-.98-4.92,1.97-4.84ZM47.46,44.7c1,0,1.81.81,1.81,1.81s-.81,1.81-1.81,1.81-1.81-.81-1.81-1.81.81-1.81,1.81-1.81ZM41.4,44.7c1,0,1.81.81,1.81,1.81s-.81,1.81-1.81,1.81-1.81-.81-1.81-1.81.81-1.81,1.81-1.81Z"></path>
    
  </g>
</svg>